<?xml version="1.0" standalone="no"?>
<!DOCTYPE svg PUBLIC "-//W3C//DTD SVG 20010904//EN"
 "http://www.w3.org/TR/2001/REC-SVG-20010904/DTD/svg10.dtd">
<svg version="1.0" xmlns="http://www.w3.org/2000/svg"
 width="200.000000pt" height="200.000000pt" viewBox="0 0 200.000000 200.000000"
 preserveAspectRatio="xMidYMid meet">
<metadata>
Created by potrace 1.16, written by Peter Selinger 2001-2019
</metadata>
<g transform="translate(0.000000,200.000000) scale(0.100000,-0.100000)"
fill="#000000" stroke="none">
<path d="M343 1350 c-17 -10 -37 -28 -42 -39 -16 -29 -13 -108 5 -143 l16 -30
27 26 27 26 218 0 c203 0 221 2 252 20 36 23 74 91 74 133 l0 27 -272 0 c-253
0 -275 -2 -305 -20z"/>
<path d="M870 991 l0 -71 49 0 c62 0 77 18 19 22 -57 4 -61 32 -5 36 50 4 48
22 -3 22 -28 0 -40 4 -40 14 0 10 14 16 43 18 59 4 52 22 -10 26 l-53 3 0 -70z"/>
<path d="M1000 1009 c0 -71 12 -89 60 -89 48 0 60 18 60 89 0 67 -18 66 -22 0
-3 -59 -25 -82 -55 -63 -13 8 -19 27 -21 63 -4 66 -22 67 -22 0z"/>
<path d="M1162 1048 c-15 -15 -16 -45 0 -54 6 -4 25 -10 42 -14 18 -3 31 -12
31 -20 0 -11 -12 -15 -49 -13 -43 1 -47 0 -34 -13 19 -19 72 -21 93 -4 30 25
11 70 -31 70 -30 0 -53 27 -30 36 9 3 28 3 42 0 19 -5 25 -3 22 6 -6 17 -70
22 -86 6z"/>
<path d="M1285 1050 c-3 -5 -5 -37 -4 -70 l2 -61 56 3 56 3 2 58 c1 46 -2 59
-17 67 -24 13 -87 13 -95 0z m83 -32 c3 -14 -3 -18 -27 -18 -25 0 -31 4 -31
21 0 16 5 20 27 17 17 -2 29 -10 31 -20z m7 -58 c0 -10 -12 -16 -32 -18 -28
-3 -33 0 -33 18 0 18 5 21 33 18 20 -2 32 -8 32 -18z"/>
<path d="M1430 990 l0 -70 50 0 c28 0 50 5 50 10 0 6 -18 10 -40 10 -33 0 -40
3 -40 20 0 17 7 20 40 20 22 0 40 5 40 10 0 6 -18 10 -40 10 -29 0 -40 4 -40
15 0 11 11 15 40 15 29 0 40 4 40 15 0 11 -12 15 -50 15 l-50 0 0 -70z"/>
<path d="M1550 1050 c0 -5 11 -10 25 -10 24 0 25 -3 25 -60 0 -77 18 -79 22
-2 3 50 6 57 26 60 46 7 20 22 -38 22 -33 0 -60 -4 -60 -10z"/>
<path d="M1680 1051 c0 -5 10 -11 23 -13 20 -3 22 -8 21 -60 -1 -43 2 -58 12
-58 10 0 14 16 14 60 0 58 1 60 26 60 14 0 23 4 19 10 -8 13 -115 13 -115 1z"/>
<path d="M324 836 c-30 -30 -34 -40 -34 -85 0 -29 7 -66 16 -82 l15 -30 20 25
c18 23 28 26 80 26 115 0 182 49 204 148 l7 32 -137 0 -137 0 -34 -34z"/>
<path d="M873 800 c0 -41 2 -60 4 -42 4 31 5 32 54 32 27 0 49 3 49 8 0 4 -22
5 -49 4 l-50 -4 -4 39 c-2 21 -4 4 -4 -37z"/>
<path d="M1031 844 c-24 -30 -26 -46 -10 -77 14 -26 28 -37 49 -37 8 0 4 6
-10 13 -36 18 -48 59 -26 92 23 36 84 33 103 -5 8 -16 13 -19 13 -9 0 50 -85
66 -119 23z"/>
<path d="M1188 863 c17 -2 47 -2 65 0 17 2 3 4 -33 4 -36 0 -50 -2 -32 -4z"/>
<path d="M1300 800 l0 -70 53 2 52 2 -47 3 -48 4 0 59 0 59 48 4 47 3 -52 2
-53 2 0 -70z"/>
<path d="M1136 765 c-3 -8 -16 -20 -28 -25 -15 -5 -17 -9 -7 -9 17 -1 56 36
47 44 -3 3 -8 -1 -12 -10z"/>
<path d="M1448 733 c12 -2 32 -2 45 0 12 2 2 4 -23 4 -25 0 -35 -2 -22 -4z"/>
</g>
</svg>
